<svg width="160" height="44" viewBox="0 0 160 44" fill="none" xmlns="http://www.w3.org/2000/svg">
<rect width="74" height="40" transform="translate(0.00396729 3.96384) rotate(-3)" fill="#F3DE6D"/>
<path d="M13.1509 30.3119L12.3942 15.8717L17.3574 15.6116C19.1882 15.5156 20.5734 15.7702 21.513 16.3752C22.4589 16.9731 22.9638 17.8813 23.0277 19.0996C23.0664 19.8386 22.9102 20.4877 22.5589 21.0468C22.2077 21.606 21.5625 22.0971 20.6234 22.5201C21.4121 22.6657 22.0258 22.9106 22.4644 23.2548C22.9093 23.592 23.2237 23.9861 23.4075 24.4371C23.5981 24.8877 23.7062 25.3594 23.732 25.852C23.8011 27.1702 23.393 28.1729 22.5078 28.8602C21.6292 29.5471 20.2312 29.9408 18.3139 30.0413L13.1509 30.3119ZM15.1432 21.8961L18.0892 21.7417C18.5352 21.7183 18.9612 21.6292 19.367 21.4745C19.7794 21.3193 20.1109 21.085 20.3615 20.7714C20.6118 20.4512 20.7236 20.0382 20.6971 19.5322C20.6594 18.8132 20.3549 18.2884 19.7835 17.9578C19.2187 17.6269 18.5069 17.484 17.6481 17.529L14.9218 17.6719L15.1432 21.8961ZM15.4761 28.2474L18.2423 28.1024C19.2609 28.049 20.0269 27.8253 20.5403 27.4312C21.0534 27.0305 21.2916 26.4806 21.255 25.7816C21.2152 25.0226 20.9029 24.4782 20.3182 24.1483C19.7331 23.8118 19.0245 23.6654 18.1923 23.709L15.2463 23.8634L15.4761 28.2474ZM29.3013 29.6157C28.4092 29.6624 27.7428 29.5572 27.3021 29.2999C26.8676 29.0356 26.5753 28.6804 26.4251 28.2343C26.2815 27.7879 26.197 27.3217 26.1715 26.8357L25.5399 14.7822L27.9166 14.6577L28.5336 26.4315C28.557 26.8776 28.665 27.219 28.8577 27.4559C29.057 27.6925 29.3641 27.8199 29.779 27.8383L30.2993 27.831L30.3794 29.3589C30.2028 29.4283 30.0188 29.4846 29.8275 29.528C29.6431 29.5778 29.4678 29.607 29.3013 29.6157ZM35.3979 29.3463C34.406 29.3982 33.5698 29.175 32.8894 28.6766C32.2087 28.1716 31.8428 27.4297 31.7915 26.451C31.7318 25.3126 32.0962 24.4323 32.8848 23.8102C33.6799 23.1877 34.9789 22.8159 36.7817 22.6947L38.3175 22.5742L38.2809 21.8751C38.2523 21.3292 38.0668 20.9117 37.7246 20.6225C37.3823 20.3334 36.8749 20.2064 36.2025 20.2417C35.6969 20.2748 35.2438 20.4187 34.8433 20.6734C34.4427 20.928 34.1898 21.3252 34.0846 21.8647L32.0174 21.9731C32.0152 20.9117 32.3963 20.094 33.1606 19.5199C33.9312 18.9387 34.9523 18.6149 36.2239 18.5482C37.6953 18.4711 38.779 18.7047 39.4751 19.249C40.1775 19.7863 40.5559 20.5743 40.6103 21.6129L40.9898 28.8529L38.9426 28.9602L38.6555 27.1127C38.3168 27.9115 37.8724 28.4756 37.3222 28.8048C36.7717 29.1274 36.1303 29.3079 35.3979 29.3463ZM36.1005 27.6572C36.4999 27.6362 36.8845 27.5226 37.2542 27.3163C37.6236 27.1034 37.9236 26.8406 38.1542 26.5281C38.3848 26.2156 38.4913 25.8896 38.4735 25.5501L38.3882 23.9223L37.1209 24.0088C36.1829 24.0713 35.4352 24.2607 34.8776 24.5769C34.3201 24.8932 34.0593 25.3942 34.0952 26.08C34.1228 26.6059 34.3275 27.0091 34.7093 27.2895C35.0909 27.5632 35.5546 27.6858 36.1005 27.6572ZM47.5651 17.9539C48.3707 17.9116 49.0882 18.0376 49.7178 18.3317C50.3471 18.6192 50.8596 19.0363 51.2554 19.583C51.6575 20.1226 51.9141 20.7501 52.025 21.4653L49.9478 21.5741C49.8502 21.1119 49.6083 20.7007 49.2223 20.3404C48.8425 19.9731 48.3264 19.8066 47.674 19.8407C46.9017 19.8812 46.2878 20.2038 45.8321 20.8085C45.3828 21.4061 45.189 22.2942 45.2507 23.4725C45.308 24.5644 45.5832 25.4212 46.0764 26.0429C46.5696 26.6646 47.2423 26.9531 48.0945 26.9084C48.5205 26.8861 48.8785 26.7739 49.1683 26.5718C49.4644 26.3626 49.6917 26.1137 49.8502 25.8251C50.0149 25.5294 50.1164 25.237 50.1547 24.9479L52.1719 24.8422C52.1423 25.5514 51.9554 26.1887 51.6112 26.7542C51.2733 27.3126 50.8063 27.7643 50.2102 28.1093C49.6138 28.4477 48.9194 28.6376 48.1272 28.6791C47.1818 28.7287 46.3288 28.5664 45.5682 28.1924C44.8139 27.8114 44.2063 27.2357 43.7453 26.4654C43.284 25.6885 43.0239 24.7375 42.9649 23.6124C42.9088 22.5405 43.056 21.5915 43.4065 20.7654C43.7568 19.9325 44.2828 19.2708 44.9848 18.78C45.693 18.2823 46.5531 18.0069 47.5651 17.9539ZM64.1755 27.6378L61.7088 27.7671L58.4623 23.1407L56.8767 24.9862L57.0353 28.012L54.6186 28.1387L53.8409 13.299L56.2575 13.1724L56.7396 22.3698L60.7782 17.4617L63.4446 17.3219L59.9211 21.5521L64.1755 27.6378Z" fill="#191C1F"/>
<path d="M90.1 14.648H101.452L101.44 17.12H93.064V22.112H100.456V24.548H93.064V32H90.1V14.648ZM104.164 32V19.592H106.96V22.28C107.264 21.36 107.752 20.644 108.424 20.132C109.104 19.612 109.888 19.352 110.776 19.352C110.92 19.352 111.056 19.36 111.184 19.376C111.32 19.392 111.424 19.42 111.496 19.46V22.256C111.408 22.216 111.292 22.188 111.148 22.172C111.012 22.156 110.892 22.148 110.788 22.148C109.588 22.052 108.668 22.24 108.028 22.712C107.396 23.176 107.08 23.868 107.08 24.788V32H104.164ZM116.774 14.66V17.42H113.882V14.66H116.774ZM116.738 19.592V32H113.93V19.592H116.738ZM124.813 32.24C123.173 32.24 121.885 31.676 120.949 30.548C120.013 29.42 119.545 27.816 119.545 25.736C119.545 23.792 119.969 22.244 120.817 21.092C121.665 19.932 122.909 19.352 124.549 19.352C125.573 19.352 126.413 19.576 127.069 20.024C127.725 20.472 128.181 20.932 128.437 21.404V14.168H131.365V32H129.205L128.881 29.456C128.753 29.848 128.537 30.26 128.233 30.692C127.937 31.124 127.513 31.492 126.961 31.796C126.409 32.092 125.693 32.24 124.813 32.24ZM125.413 30.092C126.461 30.092 127.225 29.752 127.705 29.072C128.193 28.384 128.437 27.248 128.437 25.664C128.421 24.312 128.177 23.284 127.705 22.58C127.233 21.876 126.481 21.524 125.449 21.524C124.569 21.524 123.845 21.848 123.277 22.496C122.709 23.144 122.425 24.2 122.425 25.664C122.425 27.12 122.685 28.224 123.205 28.976C123.725 29.72 124.461 30.092 125.413 30.092ZM138.195 32.24C137.003 32.24 136.015 31.92 135.231 31.28C134.447 30.632 134.055 29.72 134.055 28.544C134.055 27.176 134.547 26.144 135.531 25.448C136.523 24.752 138.103 24.388 140.271 24.356L142.119 24.308V23.468C142.119 22.812 141.923 22.3 141.531 21.932C141.139 21.564 140.539 21.38 139.731 21.38C139.123 21.388 138.571 21.532 138.075 21.812C137.579 22.092 137.251 22.552 137.091 23.192H134.607C134.671 21.92 135.179 20.964 136.131 20.324C137.091 19.676 138.335 19.352 139.863 19.352C141.631 19.352 142.915 19.7 143.715 20.396C144.523 21.084 144.927 22.052 144.927 23.3V32H142.467L142.239 29.768C141.783 30.704 141.215 31.352 140.535 31.712C139.855 32.064 139.075 32.24 138.195 32.24ZM139.143 30.26C139.623 30.26 140.091 30.148 140.547 29.924C141.003 29.692 141.379 29.396 141.675 29.036C141.971 28.676 142.119 28.292 142.119 27.884V25.928L140.595 25.952C139.467 25.968 138.559 26.148 137.871 26.492C137.183 26.836 136.839 27.42 136.839 28.244C136.839 28.876 137.059 29.372 137.499 29.732C137.939 30.084 138.487 30.26 139.143 30.26ZM149.53 35.96C148.738 35.96 148.182 35.896 147.862 35.768C147.55 35.648 147.394 35.588 147.394 35.588V33.716L148.642 33.752C149.314 33.792 149.822 33.736 150.166 33.584C150.51 33.44 150.75 33.26 150.886 33.044C151.03 32.836 151.134 32.652 151.198 32.492L151.522 31.58L146.686 19.592H149.602L152.89 28.364L156.178 19.592H159.034L153.922 32.456C153.538 33.392 153.122 34.112 152.674 34.616C152.234 35.128 151.75 35.48 151.222 35.672C150.702 35.864 150.138 35.96 149.53 35.96Z" fill="white"/>
</svg>
